<svg xmlns="http://www.w3.org/2000/svg" version="1.1" xmlns:xlink="http://www.w3.org/1999/xlink" width="32" height="32"
    x="0" y="0" viewBox="0 0 48 48" style="enable-background:new 0 0 512 512" xml:space="preserve" class="">
    <g>
        <path
            d="M34.47 45H7.53a5 5 0 0 1-4.963-5.625l3-24A5.007 5.007 0 0 1 10.53 11h20.94a5.007 5.007 0 0 1 4.963 4.376l1.329 10.67a1 1 0 1 1-1.985.247l-1.329-10.669A3 3 0 0 0 31.47 13H10.53a3 3 0 0 0-2.978 2.624l-3 24A3.005 3.005 0 0 0 7.53 43h26.94a.99.99 0 0 1 1.157.793 1.017 1.017 0 0 1-.8 1.179 1.989 1.989 0 0 1-.357.028z"
            fill="#ff3811" opacity="1" data-original="#000000" class=""></path>
        <path
            d="M28 20a1 1 0 0 1-1-1v-8a6 6 0 0 0-12 0v8a1 1 0 0 1-2 0v-8a8 8 0 0 1 16 0v8a1 1 0 0 1-1 1zM35 45a10 10 0 1 1 10-10 10.011 10.011 0 0 1-10 10zm0-18a8 8 0 1 0 8 8 8.009 8.009 0 0 0-8-8z"
            fill="#ff3811" opacity="1" data-original="#000000" class=""></path>
        <path d="M35 39a1 1 0 0 1-1-1v-6a1 1 0 0 1 2 0v6a1 1 0 0 1-1 1z" fill="#ff3811" opacity="1"
            data-original="#000000" class=""></path>
        <path d="M38 36h-6a1 1 0 0 1 0-2h6a1 1 0 0 1 0 2z" fill="#ff3811" opacity="1" data-original="#000000" class="">
        </path>
    </g>
</svg>