<svg width="48" height="48" viewBox="0 0 48 48" fill="none" xmlns="http://www.w3.org/2000/svg">
<path fill-rule="evenodd" clip-rule="evenodd" d="M17.792 14H13V16H16.218L18.988 28.678H19V29H32V28.752L34.193 19.091L34.531 18H18.655L18.085 15.389L17.792 14ZM31.987 20H19.092L20.621 27H30.398L31.987 20Z" fill="#FF8D3F"/>
<path d="M22 34C22.5304 34 23.0391 33.7893 23.4142 33.4142C23.7893 33.0391 24 32.5304 24 32C24 31.4696 23.7893 30.9609 23.4142 30.5858C23.0391 30.2107 22.5304 30 22 30C21.4696 30 20.9609 30.2107 20.5858 30.5858C20.2107 30.9609 20 31.4696 20 32C20 32.5304 20.2107 33.0391 20.5858 33.4142C20.9609 33.7893 21.4696 34 22 34ZM31 32C31 32.5304 30.7893 33.0391 30.4142 33.4142C30.0391 33.7893 29.5304 34 29 34C28.4696 34 27.9609 33.7893 27.5858 33.4142C27.2107 33.0391 27 32.5304 27 32C27 31.4696 27.2107 30.9609 27.5858 30.5858C27.9609 30.2107 28.4696 30 29 30C29.5304 30 30.0391 30.2107 30.4142 30.5858C30.7893 30.9609 31 31.4696 31 32Z" fill="#FF8D3F"/>
</svg>
