<svg version="1.1" xmlns="http://www.w3.org/2000/svg" width="32px" height="32px" viewBox="0,0,256,256">
    <g fill="#232323" fillRule="nonzero" stroke="none" strokeWidth="1" strokeLinecap="butt" strokeLinejoin="miter"
        strokeMiterlimit="10" strokeDasharray="" strokeDashoffset="0" fontFamily="none" fontWeight="none"
        fontSize="none" textAnchor="none" style="mix-blend-mode: normal">
        <g transform="scale(5.12,5.12)">
            <path
                d="M9,4c-2.74952,0 -5,2.25048 -5,5v32c0,2.74952 2.25048,5 5,5h32c2.74952,0 5,-2.25048 5,-5v-32c0,-2.74952 -2.25048,-5 -5,-5zM9,6h32c1.66848,0 3,1.33152 3,3v32c0,1.66848 -1.33152,3 -3,3h-32c-1.66848,0 -3,-1.33152 -3,-3v-32c0,-1.66848 1.33152,-3 3,-3zM16.70703,15.29297l-1.41406,1.41406l8.29297,8.29297l-8.29297,8.29297l1.41406,1.41406l8.29297,-8.29297l8.29297,8.29297l1.41406,-1.41406l-8.29297,-8.29297l8.29297,-8.29297l-1.41406,-1.41406l-8.29297,8.29297z">
            </path>
        </g>
    </g>
</svg>