<svg version="1.1" xmlns="http://www.w3.org/2000/svg" xmlns:xlink="http://www.w3.org/1999/xlink" width="48px"
    height="48px" viewBox="0,0,256,256">
    <g fill="none" fill-rule="nonzero" stroke="none" stroke-width="1" stroke-linecap="butt" stroke-linejoin="miter"
        stroke-miterlimit="10" stroke-dasharray="" stroke-dashoffset="0" font-family="none" font-weight="none"
        font-size="none" text-anchor="none" style="mix-blend-mode: normal">
        <g transform="scale(5.33333,5.33333)">
            <path
                d="M11,36c0,-0.555 -0.445,-1 -1,-1h-4c-0.555,0 -1,0.445 -1,1v6c0,0.555 0.445,1 1,1h4c0.555,0 1,-0.445 1,-1zM43,36c0,-0.555 -0.445,-1 -1,-1h-4c-0.555,0 -1,0.445 -1,1v6c0,0.555 0.445,1 1,1h4c0.555,0 1,-0.445 1,-1z"
                fill="#455a64"></path>
            <path
                d="M44,24h-40c-0.555,0 -1,0.445 -1,1v2c0,0.555 0.445,1 1,1h40c0.555,0 1,-0.445 1,-1v-2c0,-0.555 -0.445,-1 -1,-1z"
                fill="#ff3811"></path>
            <path
                d="M41,27l-2,-0.996c-0.336,0 -29.668,-0.004 -30,-0.004l-2,1c-1.105,0 -2,1.895 -2,3v8c0,0.555 0.445,1 1,1h36c0.555,0 1,-0.445 1,-1v-8c0,-1.105 -0.895,-3 -2,-3z"
                fill="#ff3811"></path>
            <path
                d="M39.785,27.004c-0.14,-0.891 -0.383,-2.285 -0.785,-4.504c-1,-5.5 -2.91,-9.5 -6.5,-9.5h-17c-3.59,0 -5.563,4.5 -6.5,9.5c-0.406,2.176 -0.648,3.594 -0.793,4.504z"
                fill="#ff3811"></path>
            <path
                d="M41,35c0,0.555 -0.445,1 -1,1h-32c-0.555,0 -1,-0.445 -1,-1v-3c0,-0.555 0.445,-1 1,-1h32c0.555,0 1,0.445 1,1z"
                fill="#263238"></path>
            <path
                d="M11,33.5c0,0.828 -0.672,1.5 -1.5,1.5c-0.828,0 -1.5,-0.672 -1.5,-1.5c0,-0.828 0.672,-1.5 1.5,-1.5c0.828,0 1.5,0.672 1.5,1.5zM40,33.5c0,0.828 -0.672,1.5 -1.5,1.5c-0.828,0 -1.5,-0.672 -1.5,-1.5c0,-0.828 0.672,-1.5 1.5,-1.5c0.828,0 1.5,0.672 1.5,1.5z"
                fill="#ffeb3b"></path>
            <path
                d="M32.5,13h-17c-3.195,0 -5.106,3.566 -6.15,7.874c1.457,0.698 3.046,1.102 4.634,1.126c2.153,-0.021 3.996,-0.768 5.331,-2.162c0.987,-1.034 1.504,-2.098 1.848,-2.838h15.667c0.191,0 0.372,-0.033 0.558,-0.052c-1.116,-2.437 -2.684,-3.948 -4.888,-3.948z"
                fill="#ff3811"></path>
            <path
                d="M37.031,22.855c-0.883,-4.855 -2.176,-7.855 -4.531,-7.855h-17c-2.188,0 -3.684,3.34 -4.535,7.867c-0.246,1.313 -0.43,2.332 -0.566,3.133h27.191c-0.137,-0.793 -0.317,-1.812 -0.559,-3.145z"
                fill="#e3f2fd"></path>
            <path
                d="M37,9c0,0 -13.608,0.007 -16.474,0.002c-0.377,-0.001 -0.714,-0.21 -0.885,-0.545c-0.371,-0.723 -0.746,-1.84 -1.772,-2.913c-0.874,-0.914 -2.135,-1.527 -3.904,-1.544c-2.354,0.035 -4.824,1.135 -6.531,2.921c-0.964,1.009 -1.434,2.079 -1.434,2.079h8c0,0 1.007,0.965 1.007,3c0,2.035 -1.007,3 -1.007,3h-8c0,0 0.47,1.07 1.434,2.079c1.707,1.786 4.177,2.887 6.531,2.921c1.768,-0.017 3.03,-0.63 3.903,-1.544c1.024,-1.072 1.4,-2.188 1.771,-2.911c0.172,-0.336 0.515,-0.545 0.893,-0.545h16.298c1.624,0 3.081,-1.216 3.165,-2.839c0.091,-1.73 -1.285,-3.161 -2.995,-3.161z"
                fill="#607d8b"></path>
        </g>
    </g>
</svg>