<svg xmlns="http://www.w3.org/2000/svg" width="24" height="24" viewBox="0 0 480 480" fill="none" stroke="currentColor"
    strokeWidth="2">
    <g>
        <path
            d="M440 64h-8V24c0-13.232-10.768-24-24-24h-16c-13.232 0-24 10.768-24 24v40H112V24c0-13.232-10.768-24-24-24H72C58.768 0 48 10.768 48 24v40h-8C17.944 64 0 81.944 0 104v336c0 22.056 17.944 40 40 40h400c22.056 0 40-17.944 40-40V104c0-22.056-17.944-40-40-40zm-56 8V24c0-4.416 3.584-8 8-8h16c4.416 0 8 3.584 8 8v80c0 4.416-3.584 8-8 8h-16c-4.416 0-8-3.584-8-8V72zM64 72V24c0-4.416 3.584-8 8-8h16c4.416 0 8 3.584 8 8v80c0 4.416-3.584 8-8 8H72c-4.416 0-8-3.584-8-8V72zm400 368c0 13.232-10.768 24-24 24H40c-13.232 0-24-10.768-24-24V208h448v232zm0-248H16v-88c0-13.232 10.768-24 24-24h8v24c0 13.232 10.768 24 24 24h16c13.232 0 24-10.768 24-24V80h256v24c0 13.232 10.768 24 24 24h16c13.232 0 24-10.768 24-24V80h8c13.232 0 24 10.768 24 24v88z">
        </path>
        <path
            d="M328 104H152c-4.424 0-8 3.576-8 8v48c0 4.424 3.576 8 8 8h176c4.424 0 8-3.576 8-8v-48c0-4.424-3.576-8-8-8zm-8 48H160v-32h160v32zM104 232H56c-4.424 0-8 3.576-8 8v40c0 4.424 3.576 8 8 8h48c4.424 0 8-3.576 8-8v-40c0-4.424-3.576-8-8-8zm-8 40H64v-24h32v24zM208 232h-48c-4.424 0-8 3.576-8 8v40c0 4.424 3.576 8 8 8h48c4.424 0 8-3.576 8-8v-40c0-4.424-3.576-8-8-8zm-8 40h-32v-24h32v24zM320 232h-48c-4.424 0-8 3.576-8 8v40c0 4.424 3.576 8 8 8h48c4.424 0 8-3.576 8-8v-40c0-4.424-3.576-8-8-8zm-8 40h-32v-24h32v24zM424 232h-48c-4.424 0-8 3.576-8 8v40c0 4.424 3.576 8 8 8h48c4.424 0 8-3.576 8-8v-40c0-4.424-3.576-8-8-8zm-8 40h-32v-24h32v24zM104 312H56c-4.424 0-8 3.576-8 8v40c0 4.424 3.576 8 8 8h48c4.424 0 8-3.576 8-8v-40c0-4.424-3.576-8-8-8zm-8 40H64v-24h32v24zM208 312h-48c-4.424 0-8 3.576-8 8v40c0 4.424 3.576 8 8 8h48c4.424 0 8-3.576 8-8v-40c0-4.424-3.576-8-8-8zm-8 40h-32v-24h32v24zM320 312h-48c-4.424 0-8 3.576-8 8v40c0 4.424 3.576 8 8 8h48c4.424 0 8-3.576 8-8v-40c0-4.424-3.576-8-8-8zm-8 40h-32v-24h32v24zM424 312h-48c-4.424 0-8 3.576-8 8v40c0 4.424 3.576 8 8 8h48c4.424 0 8-3.576 8-8v-40c0-4.424-3.576-8-8-8zm-8 40h-32v-24h32v24zM104 392H56c-4.424 0-8 3.576-8 8v40c0 4.424 3.576 8 8 8h48c4.424 0 8-3.576 8-8v-40c0-4.424-3.576-8-8-8zm-8 40H64v-24h32v24zM208 392h-48c-4.424 0-8 3.576-8 8v40c0 4.424 3.576 8 8 8h48c4.424 0 8-3.576 8-8v-40c0-4.424-3.576-8-8-8zm-8 40h-32v-24h32v24zM321.856 386.88l-34.392 41.272-17.808-17.808-11.312 11.312 24 24A7.946 7.946 0 0 0 288 448c.12 0 .24 0 .36-.008a8.056 8.056 0 0 0 5.792-2.864l40-48-12.296-10.248zM417.856 386.88l-34.392 41.272-17.808-17.808-11.312 11.312 24 24A7.946 7.946 0 0 0 384 448c.12 0 .24 0 .36-.008a8.056 8.056 0 0 0 5.792-2.864l40-48-12.296-10.248z">
        </path>
    </g>
</svg>