<svg xmlns="http://www.w3.org/2000/svg" width="48" height="48" x="0" y="0" viewBox="0 0 64 64">
    <g>
        <g data-name="13 Egg">
            <path
                d="M59.622 31.34a11.864 11.864 0 0 1 .137-9.184A13.5 13.5 0 0 0 41.844 4.241a11.878 11.878 0 0 1-9.184.137 21.86 21.86 0 0 0-9.872-1.269A22.154 22.154 0 0 0 3.051 23.493a21.9 21.9 0 0 0 1.03 8.312 11.988 11.988 0 0 1-.152 7.835 15.869 15.869 0 0 0-.808 7.341 16.109 16.109 0 0 0 13.9 13.9 16.413 16.413 0 0 0 2 .123 15.784 15.784 0 0 0 5.348-.931 11.985 11.985 0 0 1 7.834-.152 21.869 21.869 0 0 0 8.31 1.03 22.153 22.153 0 0 0 20.378-19.737 21.864 21.864 0 0 0-1.269-9.874Z"
                style="" fill="#edeff0" data-original="#edeff0" class=""></path>
            <circle cx="32" cy="32" r="12" style="" fill="#f8981d" data-original="#f8981d"></circle>
            <path d="M25 33a1 1 0 0 1-1-1 8.009 8.009 0 0 1 8-8 1 1 0 0 1 0 2 6.006 6.006 0 0 0-6 6 1 1 0 0 1-1 1Z"
                style="" fill="#fecc81" data-original="#fecc81"></path>
            <path
                d="M10.863 21a1 1 0 0 1-.942-1.337A16.071 16.071 0 0 1 23.375 9.081a1 1 0 0 1 .2 1.99A14.061 14.061 0 0 0 11.8 20.337a1 1 0 0 1-.937.663ZM10.734 30.63a1 1 0 0 1-.95-.69 15.889 15.889 0 0 1-.749-3.874 1 1 0 0 1 2-.132 13.807 13.807 0 0 0 .654 3.385 1 1 0 0 1-.951 1.311ZM17.864 54.931a.842.842 0 0 1-.122-.008 10.046 10.046 0 0 1-8.665-8.666 9.931 9.931 0 0 1 .5-4.592 1 1 0 0 1 1.883.676 7.986 7.986 0 0 0 6.524 10.6 1 1 0 0 1-.12 1.993Z"
                style="" fill="#fafbfb"></path>
        </g>
    </g>
</svg>